<svg xmlns="http://www.w3.org/2000/svg" xmlns:svg="http://www.w3.org/2000/svg" xmlns:xlink="http://www.w3.org/1999/xlink" id="svg3828" width="128" height="128" version="1.1"><defs id="defs3830"><linearGradient id="linearGradient5157" x1="25.729" x2="25.729" y1=".552" y2="46.157" gradientTransform="matrix(2.891892,0,0,2.3243242,7.59461,12.716354)" gradientUnits="userSpaceOnUse" xlink:href="#linearGradient3977-7-8"/><linearGradient id="linearGradient3977-7-8"><stop id="stop3979-6-0" offset="0" stop-color="#fff" stop-opacity="1"/><stop id="stop3981-3-70" offset="0" stop-color="#fff" stop-opacity=".235"/><stop id="stop3983-8-2" offset="1" stop-color="#fff" stop-opacity=".157"/><stop id="stop3985-2-7" offset="1" stop-color="#fff" stop-opacity=".392"/></linearGradient><linearGradient id="linearGradient5165" x1="25.132" x2="25.284" y1=".985" y2="51.422" gradientTransform="matrix(3.1142792,0,0,1.9120949,-8.742685,19.676374)" gradientUnits="userSpaceOnUse" xlink:href="#linearGradient4337"/><radialGradient id="radialGradient3846" cx="19.534" cy="40.43" r="23.93" fx="19.534" fy="40.43" gradientTransform="matrix(1.9222962,0,0,0.16715632,26.448985,114.23354)" gradientUnits="userSpaceOnUse" xlink:href="#linearGradient5071-7-3-5"/><linearGradient id="linearGradient5071-7-3-5"><stop id="stop5073-2-9-7" offset="0" stop-color="#000" stop-opacity="1"/><stop id="stop5075-2-1-0" offset="1" stop-color="#000" stop-opacity="0"/></linearGradient><linearGradient id="linearGradient5736"><stop id="stop5738" offset="0" stop-color="#586e75" stop-opacity="1"/><stop id="stop5740" offset="1" stop-color="#073642" stop-opacity="1"/></linearGradient><linearGradient id="linearGradient4337"><stop id="stop4339" offset="0" stop-color="#fdf6e3" stop-opacity="1"/><stop id="stop4341" offset="1" stop-color="#eee8d5" stop-opacity="1"/></linearGradient><linearGradient id="linearGradient5857" x1="17.234" x2="26.343" y1="-1.663" y2="54.478" gradientTransform="matrix(2.9813606,0.79277801,-0.48877088,1.8105292,4.92847,-4.3609206)" gradientUnits="userSpaceOnUse" xlink:href="#linearGradient5736"/><linearGradient id="linearGradient4527" x1="25.132" x2="25.284" y1=".985" y2="51.422" gradientTransform="matrix(3.1142792,0,0,1.9120949,-8.742685,19.676374)" gradientUnits="userSpaceOnUse" xlink:href="#linearGradient5736"/><linearGradient id="linearGradient4529" x1="25.729" x2="25.729" y1=".552" y2="46.157" gradientTransform="matrix(2.891892,0,0,2.3243242,7.59461,12.716354)" gradientUnits="userSpaceOnUse" xlink:href="#linearGradient3977-7-8"/><radialGradient id="radialGradient3025-3" cx="99.157" cy="186.171" r="62.769" fx="99.157" fy="186.171" gradientTransform="matrix(0.49776535,0,0,0.1563841,10.288298,91.862125)" gradientUnits="userSpaceOnUse" xlink:href="#linearGradient3820-7-2-1"/><linearGradient id="linearGradient3820-7-2-1"><stop id="stop3822-2-6-3" offset="0" stop-color="#3d3d3d" stop-opacity="1"/><stop id="stop3864-8-7-7" offset=".5" stop-color="#686868" stop-opacity=".498"/><stop id="stop3824-1-2-5" offset="1" stop-color="#686868" stop-opacity="0"/></linearGradient><linearGradient id="linearGradient3019-3" x1="71.204" x2="71.204" y1="6.238" y2="44.341" gradientTransform="matrix(2.1891895,0,0,2.1891891,-96.038242,24.488217)" gradientUnits="userSpaceOnUse" xlink:href="#linearGradient4011"/><linearGradient id="linearGradient4011"><stop id="stop4013" offset="0" stop-color="#fff" stop-opacity="1"/><stop id="stop4015" offset=".508" stop-color="#fff" stop-opacity=".235"/><stop id="stop4017" offset=".835" stop-color="#fff" stop-opacity=".157"/><stop id="stop4019" offset="1" stop-color="#fff" stop-opacity=".392"/></linearGradient><linearGradient id="linearGradient3012-1" x1="167.983" x2="167.983" y1="6.833" y2="61.692" gradientTransform="matrix(0,-1.4217518,1.4201881,0,13.37607,311.91358)" gradientUnits="userSpaceOnUse" xlink:href="#linearGradient5803-2-1"/><linearGradient id="linearGradient5803-2-1"><stop id="stop5805-1-6" offset="0" stop-color="#fff5ef" stop-opacity="1"/><stop id="stop5807-6-6" offset="1" stop-color="#fef8dd" stop-opacity="1"/></linearGradient></defs><metadata id="metadata3833"/><rect id="rect3412" width="82.423" height="93.508" x="37.417" y="11.754" fill="#37c8ab" fill-opacity="1" stroke="#2592a0" stroke-dasharray="none" stroke-miterlimit="4" stroke-opacity=".533" stroke-width="1" ry="3.48" transform="matrix(0.99422325,0.1073319,-0.15086293,0.98855469,0,0)"/><rect id="rect3414" width="87.01" height="104.444" x="12.951" y="2.132" fill="#80e5ff" fill-opacity="1" stroke="#000" stroke-dasharray="none" stroke-miterlimit="4" stroke-opacity=".314" stroke-width="1" opacity="1" ry="3.099"/><path id="path3818-0-5" fill="url(#radialGradient3025-3)" fill-opacity="1" stroke="none" d="m 90.889478,120.97623 a 31.24431,9.8160925 0 0 1 -62.488575,0 31.24431,9.8160925 0 1 1 62.488575,0 z" opacity=".877"/><path id="path2555-9-6" fill="#37c8ab" fill-opacity="1" fill-rule="nonzero" stroke="#2592a0" stroke-opacity=".533" stroke-width="1" d="m 61,38.499999 c -22.89824,0 -41.5,18.601711 -41.5,41.500003 C 19.5,102.89824 38.10176,121.5 61,121.5 c 22.898239,0 41.5,-18.60176 41.5,-41.499998 C 102.5,57.10171 83.898239,38.499999 61,38.499999 Z" color="#000" display="inline" enable-background="accumulate" overflow="visible" visibility="visible" style="marker:none"/><path id="path8655" fill="none" stroke="url(#linearGradient3019-3)" stroke-dasharray="none" stroke-dashoffset="0" stroke-linecap="round" stroke-linejoin="round" stroke-miterlimit="4" stroke-opacity="1" stroke-width="1" d="M 101.5,79.998588 C 101.5,102.36681 83.366089,120.5 61.000534,120.5 38.632734,120.5 20.5,102.36663 20.5,79.998588 c 0,-22.367233 18.132734,-40.49858 40.500534,-40.49858 22.365555,0 40.499466,18.131347 40.499466,40.49858 l 0,0 z" color="#000" display="inline" enable-background="accumulate" opacity=".5" overflow="visible" visibility="visible" style="marker:none"/><path id="path4451" fill="#000" fill-opacity="1" fill-rule="nonzero" stroke="none" stroke-width="1" d="m 33.5,81.500041 c 0,12.081522 8.299042,22.225689 19.477735,25.123919 a 1.9900981,1.9922892 0 0 0 2.49713,-1.93744 l 0,-5.937256 A 1.9900981,1.9922892 0 0 0 54.101426,96.874342 C 47.758298,94.66875 43.238904,88.627349 43.238904,81.500041 c 0,-4.267182 1.824733,-7.976758 4.494827,-10.874509 l 6.30528,6.312198 a 1.9900981,1.9922892 0 0 0 3.433569,-1.437469 l 0,-17.999176 a 1.9900981,1.9922892 0 0 0 -1.997715,-1.999951 l -17.979399,0 a 1.9900981,1.9922892 0 0 0 -1.435888,3.437421 l 4.744601,4.749777 C 36.36031,68.345337 33.5,74.565563 33.5,81.500041 Z m 29.965719,24.186419 a 1.9900981,1.9922892 0 0 0 1.99768,1.81241 l 17.97944,0 a 1.9900981,1.9922892 0 0 0 1.435868,-3.43735 l -5.930706,-5.937177 c 3.863659,-4.519966 6.492534,-10.210366 6.492534,-16.624302 0,-12.081605 -8.298991,-22.225693 -19.477652,-25.123923 a 1.9900981,1.9922892 0 0 0 -2.497164,1.937516 l 0,5.937183 a 1.9900981,1.9922892 0 0 0 1.373408,1.87492 c 6.343143,2.205672 10.862585,8.246994 10.862585,15.374304 0,3.741115 -1.487954,7.002996 -3.620846,9.749539 l -5.18158,-5.187229 a 1.9900981,1.9922892 0 0 0 -3.433567,1.437468 l 0,17.999171 a 1.9900981,1.9922892 0 0 0 0,0.18731 z" color="#000" display="inline" enable-background="accumulate" opacity=".063" overflow="visible" visibility="visible" style="marker:none"/><path id="path4285-6" fill="#000" fill-opacity="1" fill-rule="nonzero" stroke="none" stroke-width="1" d="m 36.039433,81.500036 c 0,11.170121 7.657366,20.510374 17.979426,23.186484 l 0,-5.937261 C 46.889737,96.270392 41.782888,89.478396 41.782888,81.500036 c 0,-5.548879 2.464939,-10.525106 6.36767,-13.874397 l 7.866029,7.874619 0,-17.999176 -17.979433,0 6.055571,6.062216 c -4.951827,4.382124 -8.053292,10.798064 -8.053292,17.936738 z m 29.965703,23.998954 17.979446,0 -7.054446,-7.062151 c 4.353964,-4.330174 7.054446,-10.304499 7.054446,-16.936803 0,-11.17012 -7.657372,-20.510383 -17.979446,-23.186485 l 0,5.937264 c 7.129097,2.478868 12.235964,9.270862 12.235964,17.249222 0,5.035142 -2.076134,9.570236 -5.368835,12.87446 l -6.867129,-6.874682 0,17.999175 z" color="#000" display="inline" enable-background="accumulate" opacity=".2" overflow="visible" visibility="visible" style="marker:none"/><path id="path4285" fill="#fafafa" fill-opacity="1" fill-rule="nonzero" stroke="none" stroke-width="1" d="m 37.063535,81.500034 c 0,11.17012 7.657366,20.510376 17.979426,23.186406 l 0,-5.937182 C 47.913839,96.270391 42.80699,89.478314 42.80699,81.500034 c 0,-5.548878 2.464939,-10.525106 6.36767,-13.874395 l 7.866029,7.874618 0,-17.999175 -17.979433,0 6.055571,6.062214 C 40.165,67.945423 37.063535,74.361281 37.063535,81.500034 Z m 29.965703,23.998956 17.979446,0 -7.054446,-7.062232 c 4.353964,-4.330095 7.054446,-10.304418 7.054446,-16.936724 0,-11.170117 -7.657372,-20.51038 -17.979446,-23.186485 l 0,5.937184 c 7.129097,2.478948 12.235964,9.270945 12.235964,17.249301 0,5.035145 -2.076134,9.570239 -5.368835,12.874384 l -6.867129,-6.874603 0,17.999175 z" color="#000" display="inline" enable-background="accumulate" overflow="visible" visibility="visible" style="marker:none"/></svg>