<svg xmlns="http://www.w3.org/2000/svg" xmlns:svg="http://www.w3.org/2000/svg" xmlns:xlink="http://www.w3.org/1999/xlink" id="svg3816" width="24" height="24" version="1.1"><defs id="defs3818"><linearGradient id="linearGradient4482"><stop id="stop4484" offset="0" stop-color="#fff" stop-opacity="1"/><stop id="stop4486" offset="0" stop-color="#fff" stop-opacity=".235"/><stop id="stop4488" offset="1" stop-color="#fff" stop-opacity=".157"/><stop id="stop4490" offset="1" stop-color="#fff" stop-opacity=".392"/></linearGradient><linearGradient id="linearGradient3297" x1="22.972" x2="22.972" y1="-3.75" y2="41.179" gradientTransform="matrix(0.48648651,0,0,0.37837838,-1.175671,5.4189213)" gradientUnits="userSpaceOnUse" xlink:href="#linearGradient4482"/><linearGradient id="linearGradient3300" x1="25.132" x2="25.132" y1=".985" y2="47.013" gradientTransform="matrix(0.57142725,0,0,0.34765344,-3.214255,5.622975)" gradientUnits="userSpaceOnUse" xlink:href="#linearGradient4337"/><linearGradient id="linearGradient3028" x1="302.857" x2="302.857" y1="366.648" y2="609.505" gradientTransform="matrix(0.03279364,0,0,0.01512557,-39.852554,14.28089)" gradientUnits="userSpaceOnUse" xlink:href="#linearGradient5048"/><linearGradient id="linearGradient5048"><stop id="stop5050" offset="0" stop-color="#000" stop-opacity="0"/><stop id="stop5056" offset=".5" stop-color="#000" stop-opacity="1"/><stop id="stop5052" offset="1" stop-color="#000" stop-opacity="0"/></linearGradient><radialGradient id="radialGradient3030" cx="605.714" cy="486.648" r="117.143" fx="605.714" fy="486.648" gradientTransform="matrix(0.03279364,0,0,0.01512557,-43.8461,14.28089)" gradientUnits="userSpaceOnUse" xlink:href="#linearGradient5060"/><linearGradient id="linearGradient5060"><stop id="stop5062" offset="0" stop-color="#000" stop-opacity="1"/><stop id="stop5064" offset="1" stop-color="#000" stop-opacity="0"/></linearGradient><radialGradient id="radialGradient3032" cx="605.714" cy="486.648" r="117.143" fx="605.714" fy="486.648" gradientTransform="matrix(-0.03279364,0,0,0.01512557,-16.153887,14.28089)" gradientUnits="userSpaceOnUse" xlink:href="#linearGradient5060"/><linearGradient id="linearGradient3192-0-3" x1="17.231" x2="26.445" y1="-2.101" y2="55.173" gradientTransform="matrix(0.5531492,0.14755837,-0.08960859,0.33296082,3.512713,-0.5401365)" gradientUnits="userSpaceOnUse" xlink:href="#linearGradient5736"/><linearGradient id="linearGradient5736"><stop id="stop5738" offset="0" stop-color="#586e75" stop-opacity="1"/><stop id="stop5740" offset="1" stop-color="#073642" stop-opacity="1"/></linearGradient><linearGradient id="linearGradient4337"><stop id="stop4339" offset="0" stop-color="#fdf6e3" stop-opacity="1"/><stop id="stop4341" offset="1" stop-color="#eee8d5" stop-opacity="1"/></linearGradient><linearGradient id="linearGradient4528" x1="25.132" x2="25.132" y1=".985" y2="47.013" gradientTransform="matrix(0.56274599,-0.0992273,0.06036938,0.3423718,-25.066009,7.8402573)" gradientUnits="userSpaceOnUse" xlink:href="#linearGradient5736"/><linearGradient id="linearGradient4532" x1="22.972" x2="22.972" y1="-3.75" y2="41.179" gradientTransform="matrix(0.47909569,-0.08447749,0.06570472,0.37262997,-23.058977,7.2906727)" gradientUnits="userSpaceOnUse" xlink:href="#linearGradient4482"/><radialGradient id="radialGradient3025-3" cx="99.157" cy="186.171" r="62.769" fx="99.157" fy="186.171" gradientTransform="matrix(0.09356139,0,0,0.0295313,1.7451375,17.230928)" gradientUnits="userSpaceOnUse" xlink:href="#linearGradient3820-7-2-1"/><linearGradient id="linearGradient3820-7-2-1"><stop id="stop3822-2-6-3" offset="0" stop-color="#3d3d3d" stop-opacity="1"/><stop id="stop3864-8-7-7" offset=".5" stop-color="#686868" stop-opacity=".498"/><stop id="stop3824-1-2-5" offset="1" stop-color="#686868" stop-opacity="0"/></linearGradient><linearGradient id="linearGradient3019-3" x1="71.204" x2="71.204" y1="6.238" y2="44.341" gradientTransform="matrix(0.35135151,0,0,0.35135132,-14.203675,6.0906984)" gradientUnits="userSpaceOnUse" xlink:href="#linearGradient4011"/><linearGradient id="linearGradient4011"><stop id="stop4013" offset="0" stop-color="#fff" stop-opacity="1"/><stop id="stop4015" offset=".508" stop-color="#fff" stop-opacity=".235"/><stop id="stop4017" offset=".835" stop-color="#fff" stop-opacity=".157"/><stop id="stop4019" offset="1" stop-color="#fff" stop-opacity=".392"/></linearGradient><linearGradient id="linearGradient3012-1" x1="167.983" x2="167.983" y1="6.833" y2="61.692" gradientTransform="matrix(0,-0.2688943,0.26980946,0,2.3160804,58.80006)" gradientUnits="userSpaceOnUse" xlink:href="#linearGradient5803-2-1"/><linearGradient id="linearGradient5803-2-1"><stop id="stop5805-1-6" offset="0" stop-color="#fff5ef" stop-opacity="1"/><stop id="stop5807-6-6" offset="1" stop-color="#fef8dd" stop-opacity="1"/></linearGradient></defs><metadata id="metadata3821"/><rect id="rect3412" width="15.6" height="17.671" x="7.525" y="2.654" fill="#4eccc2" fill-opacity="1" stroke="#39a898" stroke-dasharray="none" stroke-miterlimit="4" stroke-opacity=".533" stroke-width="1" ry=".658" transform="matrix(0.99424107,0.10716668,-0.15109286,0.98851957,0,0)"/><rect id="rect3414" width="16" height="20" x="2.5" y=".5" fill="#8cd5ff" fill-opacity="1" stroke="#3689e6" stroke-dasharray="none" stroke-linecap="round" stroke-linejoin="round" stroke-miterlimit="4" stroke-opacity=".314" stroke-width="1" opacity="1" ry=".593"/><path id="path2555-9-6" fill="#37c8ab" fill-opacity=".73" fill-rule="nonzero" stroke="#268975" stroke-opacity=".533" stroke-width="1" d="m 11.000001,7.4999988 c -4.1382395,0 -7.5000011,3.3617542 -7.5000011,7.4999982 0,4.138239 3.3617616,7.500002 7.5000011,7.500002 4.138234,0 7.500004,-3.361763 7.499999,-7.500002 0,-4.138244 -3.361765,-7.4999982 -7.499999,-7.4999982 z" color="#000" display="inline" enable-background="accumulate" overflow="visible" visibility="visible" style="marker:none"/><path id="path8655" fill="none" stroke="url(#linearGradient3019-3)" stroke-dasharray="none" stroke-dashoffset="0" stroke-linecap="round" stroke-linejoin="round" stroke-miterlimit="4" stroke-opacity="1" stroke-width="1" d="M 17.5,14.999772 C 17.5,18.589736 14.589632,21.5 11.000085,21.5 c -3.5898913,0 -6.5000851,-2.910293 -6.5000851,-6.500228 0,-3.589804 2.9101938,-6.4997722 6.5000851,-6.4997722 3.589547,0 6.499915,2.9099682 6.499915,6.4997722 l 0,0 z" color="#000" display="inline" enable-background="accumulate" opacity=".5" overflow="visible" visibility="visible" style="marker:none"/><path id="path4285-6" fill="#000" fill-opacity="1" fill-rule="nonzero" stroke="none" stroke-width="1" d="m 6.5617102,15.129397 c 0,2.139538 1.4332699,3.928583 3.3653054,4.441162 l 0,-1.137226 C 8.5926201,17.958522 7.636742,16.657579 7.636742,15.129397 c 0,-1.062838 0.4613778,-2.015992 1.191872,-2.657514 l 1.472327,1.508317 0,-3.447595 -3.3653058,0 1.1334539,1.161179 c -0.9268612,0.839344 -1.5073789,2.068258 -1.5073789,3.435613 z m 5.6088428,4.596779 3.36531,0 -1.320419,-1.352693 c 0.814954,-0.8294 1.320419,-1.973731 1.320419,-3.244086 0,-2.13954 -1.433272,-3.928582 -3.36531,-4.441163 l 0,1.137228 c 1.334391,0.474811 2.290272,1.775756 2.290272,3.303935 0,0.964441 -0.388603,1.833102 -1.004914,2.465985 l -1.285358,-1.316783 0,3.447577 z" color="#000" display="inline" enable-background="accumulate" opacity=".2" overflow="visible" visibility="visible" style="marker:none"/><path id="path4285" fill="#fafafa" fill-opacity="1" fill-rule="nonzero" stroke="none" stroke-width="1" d="m 6.752505,15.12939 c 0,2.13954 1.43327,3.928585 3.365305,4.441156 l 0,-1.137214 C 8.7834149,17.958518 7.8275368,16.657569 7.8275368,15.12939 c 0,-1.062828 0.4613779,-2.015986 1.191872,-2.657509 l 1.4723262,1.508314 0,-3.447589 -3.365305,0 1.1334539,1.16117 C 7.3330227,12.533124 6.752505,13.762035 6.752505,15.12939 Z m 5.608842,4.596785 3.36531,0 -1.320419,-1.352696 c 0.814954,-0.829402 1.320419,-1.973732 1.320419,-3.244089 0,-2.139532 -1.433272,-3.928572 -3.36531,-4.441158 l 0,1.137221 c 1.334392,0.474813 2.290273,1.775758 2.290273,3.303937 0,0.964441 -0.388603,1.833094 -1.004914,2.465982 l -1.285359,-1.316779 0,3.447582 z" color="#000" display="inline" enable-background="accumulate" overflow="visible" visibility="visible" style="marker:none"/></svg>