<svg xmlns="http://www.w3.org/2000/svg" xmlns:svg="http://www.w3.org/2000/svg" xmlns:xlink="http://www.w3.org/1999/xlink" id="svg3130" width="64" height="64" version="1.1"><defs id="defs3132"><linearGradient id="linearGradient5769"><stop id="stop5771" offset="0" stop-color="#fff" stop-opacity="1"/><stop id="stop5773" offset="0" stop-color="#fff" stop-opacity=".235"/><stop id="stop5775" offset="1" stop-color="#fff" stop-opacity=".157"/><stop id="stop5777" offset="1" stop-color="#fff" stop-opacity=".392"/></linearGradient><linearGradient id="linearGradient5736"><stop id="stop5738" offset="0" stop-color="#586e75" stop-opacity="1"/><stop id="stop5740" offset="1" stop-color="#073642" stop-opacity="1"/></linearGradient><linearGradient id="linearGradient4337"><stop id="stop4339" offset="0" stop-color="#fdf6e3" stop-opacity="1"/><stop id="stop4341" offset="1" stop-color="#eee8d5" stop-opacity="1"/></linearGradient><linearGradient id="linearGradient4277-0" x1="41.453" x2="41.453" y1="-3.75" y2="42.06" gradientTransform="matrix(1.4324324,0,0,1.135135,-0.37882,10.25677)" gradientUnits="userSpaceOnUse" xlink:href="#linearGradient5769"/><linearGradient id="linearGradient4285-6" x1="25.132" x2="25.132" y1=".985" y2="47.013" gradientTransform="matrix(1.5714252,0,0,0.95604679,-3.7142,13.088186)" gradientUnits="userSpaceOnUse" xlink:href="#linearGradient4337"/><radialGradient id="radialGradient4291-0" cx="19.534" cy="40.43" r="23.93" fx="19.534" fy="40.43" gradientTransform="matrix(1.0029562,1.769214e-7,-1.4743171e-8,0.0835781,14.407338,56.620897)" gradientUnits="userSpaceOnUse" xlink:href="#radialGradient3109-470-9-6"/><radialGradient id="radialGradient3109-470-9-6" cx="62.625" cy="4.625" r="10.625" gradientTransform="matrix(1.1294118,0,0,0.2823525,-58.729414,19.694118)" gradientUnits="userSpaceOnUse"><stop id="stop5165-6-1" offset="0" stop-color="#000" stop-opacity="1"/><stop id="stop5167-3-5" offset="1" stop-color="#000" stop-opacity="0"/></radialGradient><linearGradient id="linearGradient5857" x1="17.234" x2="26.343" y1="-1.663" y2="54.478" gradientTransform="matrix(1.5163817,0.4032233,-0.24859898,0.92087263,3.95455,0.18711795)" gradientUnits="userSpaceOnUse" xlink:href="#linearGradient5736"/><linearGradient id="linearGradient4523" x1="25.132" x2="25.132" y1=".985" y2="47.013" gradientTransform="matrix(1.5714252,0,0,0.95604679,-5.7142,12.90359)" gradientUnits="userSpaceOnUse" xlink:href="#linearGradient5736"/><linearGradient id="linearGradient4677" x1="41.453" x2="41.453" y1="-3.75" y2="42.06" gradientTransform="matrix(1.4324324,0,0,1.135135,-4.37882,8.25677)" gradientUnits="userSpaceOnUse" xlink:href="#linearGradient5769"/><radialGradient id="radialGradient3025-3" cx="99.157" cy="186.171" r="62.769" fx="99.157" fy="186.171" gradientTransform="matrix(0.24871944,0,0,0.07817047,4.9510232,45.721368)" gradientUnits="userSpaceOnUse" xlink:href="#linearGradient3820-7-2-1"/><linearGradient id="linearGradient3820-7-2-1"><stop id="stop3822-2-6-3" offset="0" stop-color="#3d3d3d" stop-opacity="1"/><stop id="stop3864-8-7-7" offset=".5" stop-color="#686868" stop-opacity=".498"/><stop id="stop3824-1-2-5" offset="1" stop-color="#686868" stop-opacity="0"/></linearGradient><linearGradient id="linearGradient3019-3" x1="71.204" x2="71.204" y1="6.238" y2="44.341" gradientTransform="matrix(1.0539177,0,0,1.0539175,-45.601218,13.275564)" gradientUnits="userSpaceOnUse" xlink:href="#linearGradient4011"/><linearGradient id="linearGradient4011"><stop id="stop4013" offset="0" stop-color="#fff" stop-opacity="1"/><stop id="stop4015" offset=".508" stop-color="#fff" stop-opacity=".235"/><stop id="stop4017" offset=".835" stop-color="#fff" stop-opacity=".157"/><stop id="stop4019" offset="1" stop-color="#fff" stop-opacity=".392"/></linearGradient><linearGradient id="linearGradient3012-1" x1="167.983" x2="167.983" y1="6.833" y2="61.692" gradientTransform="matrix(0,-0.71481667,0.71419586,0,6.571277,156.24964)" gradientUnits="userSpaceOnUse" xlink:href="#linearGradient5803-2-1"/><linearGradient id="linearGradient5803-2-1"><stop id="stop5805-1-6" offset="0" stop-color="#fff5ef" stop-opacity="1"/><stop id="stop5807-6-6" offset="1" stop-color="#fef8dd" stop-opacity="1"/></linearGradient></defs><metadata id="metadata3135"/><rect id="rect3412" width="41.184" height="46.74" x="18.479" y="5.7" fill="#37c8ab" fill-opacity="1" stroke="#2790a0" stroke-dasharray="none" stroke-miterlimit="4" stroke-opacity=".533" stroke-width="1" ry="1.739" transform="matrix(0.99421889,0.10737224,-0.1508069,0.98856324,0,0)"/><rect id="rect3414" width="43.49" height="52.49" x="6.255" y="1.255" fill="#8cd5ff" fill-opacity="1" stroke="#002e99" stroke-dasharray="none" stroke-miterlimit="4" stroke-opacity=".314" stroke-width="1" opacity="1" ry="1.557"/><path id="path3818-0-5" fill="url(#radialGradient3025-3)" fill-opacity="1" stroke="none" d="m 45.225204,60.274406 a 15.611908,4.9066919 0 0 1 -31.223807,0 15.611908,4.9066919 0 1 1 31.223807,0 z" opacity=".877"/><path id="path2555-9-6" fill="#37c8ab" fill-opacity="1" fill-rule="nonzero" stroke="#2790a0" stroke-opacity=".533" stroke-width="1" d="M 30.000006,19.5 C 18.688816,19.5 9.5,28.688796 9.5,40.000004 9.5,51.311177 18.688816,60.5 30.000006,60.5 41.311179,60.5 50.500012,51.311177 50.5,40.000004 50.5,28.688796 41.311179,19.5 30.000006,19.5 Z" color="#000" display="inline" enable-background="accumulate" overflow="visible" visibility="visible" style="marker:none"/><path id="path8655" fill="none" stroke="url(#linearGradient3019-3)" stroke-dasharray="none" stroke-dashoffset="0" stroke-linecap="round" stroke-linejoin="round" stroke-miterlimit="4" stroke-opacity="1" stroke-width="1.005" d="m 49.497468,39.999321 c 0,10.768491 -8.729964,19.498148 -19.497212,19.498148 -10.768275,0 -19.497725,-8.729745 -19.497725,-19.498148 0,-10.768016 8.72945,-19.496789 19.497725,-19.496789 10.767248,0 19.497212,8.728773 19.497212,19.496789 l 0,0 z" color="#000" display="inline" enable-background="accumulate" opacity=".5" overflow="visible" visibility="visible" style="marker:none"/><path id="path4451" fill="#000" fill-opacity="1" fill-rule="nonzero" stroke="none" stroke-width="1" d="m 16.691642,40.404219 c 0,6.07424 4.173489,11.174461 9.795123,12.631581 a 1.0007968,1.0016667 0 0 0 1.255777,-0.974072 l 0,-2.985077 a 1.0007968,1.0016667 0 0 0 -0.690687,-0.942664 c -3.189884,-1.108909 -5.462634,-4.146369 -5.462634,-7.729768 0,-2.145431 0.917636,-4.010501 2.260397,-5.467412 l 3.17085,3.173603 a 1.0007968,1.0016667 0 0 0 1.726702,-0.722714 l 0,-9.049487 a 1.0007968,1.0016667 0 0 0 -1.004628,-1.005498 l -9.041628,0 a 1.0007968,1.0016667 0 0 0 -0.722085,1.728218 l 2.385999,2.388058 c -2.234768,2.341402 -3.673186,5.468774 -3.673186,8.955232 z m 15.069405,12.160248 a 1.0007968,1.0016667 0 0 0 1.004611,0.911227 l 9.041645,0 a 1.0007968,1.0016667 0 0 0 0.722081,-1.72819 l -2.982486,-2.985076 c 1.942994,-2.272512 3.265028,-5.13346 3.265028,-8.358209 0,-6.074275 -4.173468,-11.174455 -9.795086,-12.631587 a 1.0007968,1.0016667 0 0 0 -1.255793,0.974099 l 0,2.985052 a 1.0007968,1.0016667 0 0 0 0.690671,0.942651 c 3.189894,1.108948 5.462666,4.146384 5.462666,7.729785 0,1.880926 -0.748274,3.520884 -1.82088,4.901792 l -2.605755,-2.608008 a 1.0007968,1.0016667 0 0 0 -1.726702,0.722718 l 0,9.049473 a 1.0007968,1.0016667 0 0 0 0,0.0943 z" color="#000" display="inline" enable-background="accumulate" opacity=".063" overflow="visible" visibility="visible" style="marker:none"/><path id="path4285-6" fill="#000" fill-opacity="1" fill-rule="nonzero" stroke="none" stroke-width="1" d="m 17.968618,40.404246 c 0,5.616021 3.850799,10.312046 9.041644,11.657507 l 0,-2.985081 c -3.585154,-1.246316 -6.153329,-4.661136 -6.153329,-8.672425 0,-2.789818 1.23959,-5.291729 3.202227,-6.975651 l 3.955732,3.959149 0,-9.049515 -9.041639,0 3.04527,3.04795 c -2.490214,2.203174 -4.049905,5.428923 -4.049905,9.018066 z m 15.069399,12.065977 9.041651,0 -3.547598,-3.550651 c 2.189557,-2.17707 3.547598,-5.180802 3.547598,-8.515326 0,-5.616031 -3.850802,-10.312049 -9.041651,-11.657508 l 0,2.985084 c 3.585139,1.246316 6.153325,4.661144 6.153325,8.672424 0,2.531536 -1.044067,4.811666 -2.699928,6.472909 l -3.453397,-3.456393 0,9.049461 z" color="#000" display="inline" enable-background="accumulate" opacity=".2" overflow="visible" visibility="visible" style="marker:none"/><path id="path4285" fill="#fafafa" fill-opacity="1" fill-rule="nonzero" stroke="none" stroke-width="1" d="m 18.483423,40.40423 c 0,5.616024 3.850799,10.312049 9.041644,11.657485 l 0,-2.985048 c -3.585154,-1.246327 -6.153329,-4.66116 -6.153329,-8.672437 0,-2.789795 1.23959,-5.291718 3.202227,-6.975644 l 3.955732,3.959146 0,-9.049502 -9.041639,0 3.04527,3.04793 c -2.490214,2.203185 -4.049905,5.428929 -4.049905,9.01807 z m 15.069399,12.065992 9.041651,0 -3.547598,-3.550657 c 2.189557,-2.177083 3.547598,-5.180808 3.547598,-8.515335 0,-5.616017 -3.850802,-10.312024 -9.041651,-11.657502 l 0,2.985068 c 3.585139,1.246329 6.153325,4.661152 6.153325,8.672434 0,2.531538 -1.044067,4.811641 -2.699928,6.472895 l -3.453397,-3.45638 0,9.049477 z" color="#000" display="inline" enable-background="accumulate" overflow="visible" visibility="visible" style="marker:none"/></svg>