<svg xmlns="http://www.w3.org/2000/svg" xmlns:svg="http://www.w3.org/2000/svg" xmlns:xlink="http://www.w3.org/1999/xlink" id="svg2526" width="32" height="32" version="1.0"><metadata id="metadata58"/><defs id="defs2528"><linearGradient id="linearGradient4441"><stop id="stop4443" offset="0" stop-color="#fff" stop-opacity="1"/><stop id="stop4445" offset="0" stop-color="#fff" stop-opacity=".235"/><stop id="stop4447" offset="1" stop-color="#fff" stop-opacity=".157"/><stop id="stop4449" offset="1" stop-color="#fff" stop-opacity=".392"/></linearGradient><linearGradient id="linearGradient5060"><stop id="stop5062" offset="0" stop-color="#000" stop-opacity="1"/><stop id="stop5064" offset="1" stop-color="#000" stop-opacity="0"/></linearGradient><linearGradient id="linearGradient5048"><stop id="stop5050" offset="0" stop-color="#000" stop-opacity="0"/><stop id="stop5056" offset=".5" stop-color="#000" stop-opacity="1"/><stop id="stop5052" offset="1" stop-color="#000" stop-opacity="0"/></linearGradient><linearGradient id="linearGradient3188" x1="302.857" x2="302.857" y1="366.648" y2="609.505" gradientTransform="matrix(0.06045202,0,0,0.01647059,-0.754243,21.961096)" gradientUnits="userSpaceOnUse" xlink:href="#linearGradient5048"/><radialGradient id="radialGradient3190" cx="605.714" cy="486.648" r="117.143" fx="605.714" fy="486.648" gradientTransform="matrix(-0.02008098,0,0,0.01647059,18.60219,21.961131)" gradientUnits="userSpaceOnUse" xlink:href="#linearGradient5060"/><radialGradient id="radialGradient3192" cx="605.714" cy="486.648" r="117.143" fx="605.714" fy="486.648" gradientTransform="matrix(0.02008097,0,0,0.01647059,13.397992,21.961131)" gradientUnits="userSpaceOnUse" xlink:href="#linearGradient5060"/><linearGradient id="linearGradient3296" x1="24" x2="24" y1="3.087" y2="41.696" gradientTransform="matrix(0.7837838,0,0,0.6216216,2.189191,2.081085)" gradientUnits="userSpaceOnUse" xlink:href="#linearGradient4441"/><linearGradient id="linearGradient3299" x1="25.132" x2="25.132" y1=".985" y2="47.013" gradientTransform="matrix(0.88775301,0,0,0.54518426,-4.27036,3.0337592)" gradientUnits="userSpaceOnUse" xlink:href="#linearGradient4337"/><linearGradient id="linearGradient5736"><stop id="stop5738" offset="0" stop-color="#586e75" stop-opacity="1"/><stop id="stop5740" offset="1" stop-color="#073642" stop-opacity="1"/></linearGradient><linearGradient id="linearGradient4337"><stop id="stop4339" offset="0" stop-color="#fdf6e3" stop-opacity="1"/><stop id="stop4341" offset="1" stop-color="#eee8d5" stop-opacity="1"/></linearGradient><linearGradient id="linearGradient4496" x1="20.384" x2="25.581" y1="2.753" y2="51.199" gradientTransform="matrix(0.80384891,0.14170306,-0.08623413,0.48892969,0.012884,-1.6575098)" gradientUnits="userSpaceOnUse" xlink:href="#linearGradient5736"/><linearGradient id="linearGradient866" x1="25.132" x2="25.132" y1=".985" y2="47.013" gradientTransform="matrix(0.88775301,0,0,0.54518426,-4.27036,3.0337592)" gradientUnits="userSpaceOnUse" xlink:href="#linearGradient5736"/><linearGradient id="linearGradient868" x1="24" x2="24" y1="3.087" y2="41.696" gradientTransform="matrix(0.7837838,0,0,0.6216216,2.189191,2.081085)" gradientUnits="userSpaceOnUse" xlink:href="#linearGradient4441"/><radialGradient id="radialGradient3025-3" cx="99.157" cy="186.171" r="62.769" fx="99.157" fy="186.171" gradientTransform="matrix(0.20906163,0,0,0.0391718,-4.607306,21.250711)" gradientUnits="userSpaceOnUse" xlink:href="#linearGradient3820-7-2-1"/><linearGradient id="linearGradient3820-7-2-1"><stop id="stop3822-2-6-3" offset="0" stop-color="#3d3d3d" stop-opacity="1"/><stop id="stop3864-8-7-7" offset=".5" stop-color="#686868" stop-opacity=".498"/><stop id="stop3824-1-2-5" offset="1" stop-color="#686868" stop-opacity="0"/></linearGradient><linearGradient id="linearGradient3019-3" x1="71.204" x2="71.204" y1="6.238" y2="44.341" gradientTransform="matrix(0.5135138,0,0,0.51351364,-21.836145,6.9787115)" gradientUnits="userSpaceOnUse" xlink:href="#linearGradient4011"/><linearGradient id="linearGradient4011"><stop id="stop4013" offset="0" stop-color="#fff" stop-opacity="1"/><stop id="stop4015" offset=".508" stop-color="#fff" stop-opacity=".235"/><stop id="stop4017" offset=".835" stop-color="#fff" stop-opacity=".157"/><stop id="stop4019" offset="1" stop-color="#fff" stop-opacity=".392"/></linearGradient><linearGradient id="linearGradient3012-1" x1="167.983" x2="167.983" y1="6.833" y2="61.692" gradientTransform="matrix(0,-0.35551156,0.35880942,0,3.4247534,77.899426)" gradientUnits="userSpaceOnUse" xlink:href="#linearGradient5803-2-1"/><linearGradient id="linearGradient5803-2-1"><stop id="stop5805-1-6" offset="0" stop-color="#fff5ef" stop-opacity="1"/><stop id="stop5807-6-6" offset="1" stop-color="#fef8dd" stop-opacity="1"/></linearGradient></defs><rect id="rect3412" width="19.939" height="23.235" x="10.345" y="3.304" fill="#37c8ab" fill-opacity="1" stroke="#3091a9" stroke-dasharray="none" stroke-miterlimit="4" stroke-opacity=".526" stroke-width="1" ry=".865" transform="matrix(0.99389703,0.11031178,-0.14682958,0.9891618,0,0)"/><rect id="rect3414" width="21" height="26" x="3.5" y=".5" fill="#8cd5ff" fill-opacity="1" stroke="#002e99" stroke-dasharray="none" stroke-miterlimit="4" stroke-opacity=".314" stroke-width="1" opacity="1" ry=".771"/><path id="path3818-0-5" fill="url(#radialGradient3025-3)" fill-opacity="1" stroke="none" d="m 29.24524,28.543342 a 13.122622,2.4587789 0 0 1 -26.2452351,0 13.122622,2.4587789 0 1 1 26.2452351,0 z" opacity=".877"/><path id="path2555-9-6" fill="#37c8ab" fill-opacity="1" fill-rule="nonzero" stroke="#33abaa" stroke-opacity=".533" stroke-width="1" d="m 15.000004,9.5000003 c -5.7935373,0 -10.5000042,4.7064557 -10.5000042,10.5000017 0,5.793527 4.7064669,10.499999 10.5000042,10.499999 5.793526,0 10.500001,-4.706472 10.499995,-10.499999 0,-5.793546 -4.706469,-10.5000017 -10.499995,-10.5000017 z" color="#000" display="inline" enable-background="accumulate" overflow="visible" visibility="visible" style="marker:none"/><path id="path8655" fill="none" stroke="url(#linearGradient3019-3)" stroke-dasharray="none" stroke-dashoffset="0" stroke-linecap="round" stroke-linejoin="round" stroke-miterlimit="4" stroke-opacity="1" stroke-width="1" d="m 24.499999,19.999669 c 0,5.24687 -4.253613,9.500332 -9.499875,9.500332 -5.2467636,0 -9.5001243,-4.253505 -9.5001243,-9.500332 0,-5.246637 4.2533607,-9.499669 9.5001243,-9.499669 5.246262,0 9.499875,4.253032 9.499875,9.499669 l 0,0 z" color="#000" display="inline" enable-background="accumulate" opacity=".5" overflow="visible" visibility="visible" style="marker:none"/><path id="path4285-6" fill="#000" fill-opacity="1" fill-rule="nonzero" stroke="none" stroke-width="1" d="m 9.5891116,20.605553 c 0,2.743528 1.9022974,5.03762 4.4665834,5.694902 l 0,-1.458265 c -1.771072,-0.608849 -3.039755,-2.277048 -3.039755,-4.236637 0,-1.362877 0.61236,-2.585104 1.581905,-3.40773 l 1.95414,1.934115 0,-4.420848 -4.466584,0 1.504369,1.488978 c -1.230171,1.076289 -2.0006584,2.652125 -2.0006584,4.405485 z M 17.033413,26.5 21.5,26.5 19.747484,24.765442 C 20.829127,23.701905 21.5,22.234527 21.5,20.605553 c 0,-2.74353 -1.902302,-5.037619 -4.466587,-5.694902 l 0,1.458269 c 1.771064,0.608847 3.039751,2.27705 3.039751,4.236633 0,1.236701 -0.515772,2.350586 -1.333768,3.162133 l -1.705983,-1.68851 0,4.420824 z" color="#000" display="inline" enable-background="accumulate" opacity=".2" overflow="visible" visibility="visible" style="marker:none"/><path id="path4285" fill="#fafafa" fill-opacity="1" fill-rule="nonzero" stroke="none" stroke-width="1" d="m 9.5,20.394457 c 0,2.743529 1.902298,5.037621 4.466583,5.694891 l 0,-1.458249 c -1.771072,-0.608855 -3.039754,-2.277061 -3.039754,-4.236642 0,-1.362866 0.612358,-2.5851 1.581905,-3.407725 l 1.954139,1.934111 0,-4.420843 -4.4665837,0 1.5043687,1.488968 C 10.270488,17.065262 9.5,18.641097 9.5,20.394457 Z m 7.444301,5.894452 4.466588,0 -1.752516,-1.734559 c 1.081642,-1.063543 1.752516,-2.530918 1.752516,-4.159893 0,-2.743525 -1.902303,-5.037609 -4.466588,-5.6949 l 0,1.45826 c 1.771065,0.608854 3.039751,2.277057 3.039751,4.23664 0,1.236701 -0.515771,2.350572 -1.333768,3.162125 l -1.705983,-1.688503 0,4.42083 z" color="#000" display="inline" enable-background="accumulate" overflow="visible" visibility="visible" style="marker:none"/></svg>