<svg xmlns="http://www.w3.org/2000/svg" xmlns:svg="http://www.w3.org/2000/svg" xmlns:xlink="http://www.w3.org/1999/xlink" id="svg3508" width="16" height="16" version="1.1"><defs id="defs3510"><linearGradient id="linearGradient3174-3" x1="23.996" x2="24" y1="-.667" y2="40.444" gradientTransform="matrix(0.29729729,0,0,0.24324323,1.8661564,3.1621588)" gradientUnits="userSpaceOnUse" xlink:href="#linearGradient3977-7-7"/><linearGradient id="linearGradient3977-7-7"><stop id="stop3979-6-6" offset="0" stop-color="#fff" stop-opacity="1"/><stop id="stop3981-3-44" offset="0" stop-color="#fff" stop-opacity=".235"/><stop id="stop3983-8-5" offset="1" stop-color="#fff" stop-opacity=".157"/><stop id="stop3985-2-08" offset="1" stop-color="#fff" stop-opacity=".392"/></linearGradient><linearGradient id="linearGradient3182-5" x1="25.132" x2="25.132" y1=".985" y2="47.013" gradientTransform="matrix(0.37142773,0,0,0.23901171,-1.9142624,2.8970461)" gradientUnits="userSpaceOnUse" xlink:href="#linearGradient4337"/><linearGradient id="linearGradient5736"><stop id="stop5738" offset="0" stop-color="#586e75" stop-opacity="1"/><stop id="stop5740" offset="1" stop-color="#073642" stop-opacity="1"/></linearGradient><linearGradient id="linearGradient4337"><stop id="stop4339" offset="0" stop-color="#fdf6e3" stop-opacity="1"/><stop id="stop4341" offset="1" stop-color="#eee8d5" stop-opacity="1"/></linearGradient><linearGradient id="linearGradient3192-0-3" x1="17.231" x2="26.445" y1="-2.101" y2="55.173" gradientTransform="matrix(0.34025771,0.09076733,-0.05512078,0.20481361,1.2325009,-0.0196911)" gradientUnits="userSpaceOnUse" xlink:href="#linearGradient5736"/><linearGradient id="linearGradient4526" x1="25.132" x2="25.132" y1=".985" y2="47.013" gradientTransform="matrix(0.37142773,0,0,0.23901171,-1.9142624,2.8970461)" gradientUnits="userSpaceOnUse" xlink:href="#linearGradient5736"/><linearGradient id="linearGradient4528" x1="23.996" x2="24" y1="-.667" y2="40.444" gradientTransform="matrix(0.29729729,0,0,0.24324323,1.8661564,3.1621588)" gradientUnits="userSpaceOnUse" xlink:href="#linearGradient3977-7-7"/><radialGradient id="radialGradient3025-3" cx="99.157" cy="186.171" r="62.769" fx="99.157" fy="186.171" gradientTransform="matrix(0.06180142,0,0,0.01958996,1.3417018,11.475634)" gradientUnits="userSpaceOnUse" xlink:href="#linearGradient3820-7-2-1"/><linearGradient id="linearGradient3820-7-2-1"><stop id="stop3822-2-6-3" offset="0" stop-color="#3d3d3d" stop-opacity="1"/><stop id="stop3864-8-7-7" offset=".5" stop-color="#686868" stop-opacity=".498"/><stop id="stop3824-1-2-5" offset="1" stop-color="#686868" stop-opacity="0"/></linearGradient><linearGradient id="linearGradient3019-3" x1="71.204" x2="71.204" y1="6.238" y2="44.341" gradientTransform="matrix(0.27027043,0,0,0.27027031,-13.387445,3.1466911)" gradientUnits="userSpaceOnUse" xlink:href="#linearGradient4011"/><linearGradient id="linearGradient4011"><stop id="stop4013" offset="0" stop-color="#fff" stop-opacity="1"/><stop id="stop4015" offset=".508" stop-color="#fff" stop-opacity=".235"/><stop id="stop4017" offset=".835" stop-color="#fff" stop-opacity=".157"/><stop id="stop4019" offset="1" stop-color="#fff" stop-opacity=".392"/></linearGradient><linearGradient id="linearGradient3012-1" x1="167.983" x2="167.983" y1="6.833" y2="61.692" gradientTransform="matrix(0.20734787,0,0,0.20734768,-27.103442,2.5416265)" gradientUnits="userSpaceOnUse" xlink:href="#linearGradient5803-2-1"/><linearGradient id="linearGradient5803-2-1"><stop id="stop5805-1-6" offset="0" stop-color="#fff5ef" stop-opacity="1"/><stop id="stop5807-6-6" offset="1" stop-color="#fef8dd" stop-opacity="1"/></linearGradient></defs><metadata id="metadata3513"/><rect id="rect3412" width="10.397" height="11.631" x="4.629" y="2.492" fill="#32c896" fill-opacity="1" stroke="#45ba8f" stroke-dasharray="none" stroke-miterlimit="4" stroke-opacity=".532" stroke-width="1.001" ry=".433" transform="matrix(0.99438738,0.10580051,-0.15302046,0.98822302,0,0)"/><rect id="rect3414" width="11" height="14" x=".5" y=".5" fill="#8cd5ff" fill-opacity="1" stroke="#3689e6" stroke-dasharray="none" stroke-miterlimit="4" stroke-opacity=".314" stroke-width="1" opacity="1" ry=".415"/><path id="path2555-9-6" fill="#32c896" fill-opacity="1" fill-rule="nonzero" stroke="#199664" stroke-opacity=".533" stroke-width="1" d="M 6.0000014,4.5 C 2.9652916,4.5 0.5,6.9652868 0.5,10 c 0,3.034706 2.4652916,5.5 5.5000014,5.5 C 9.034706,15.5 11.500004,13.034706 11.5,10 11.5,6.9652868 9.034706,4.5 6.0000014,4.5 Z" color="#000" display="inline" enable-background="accumulate" overflow="visible" visibility="visible" style="marker:none"/><path id="path8655" fill="none" stroke="url(#linearGradient3019-3)" stroke-dasharray="none" stroke-dashoffset="0" stroke-linecap="round" stroke-linejoin="round" stroke-miterlimit="4" stroke-opacity="1" stroke-width="1" d="M 11.000001,9.9998254 C 11.000001,12.761336 8.7612565,15 6.0000664,15 3.2386109,15 1.0000001,12.761313 1.0000001,9.9998254 c 0,-2.7613877 2.2386108,-4.9998255 5.0000663,-4.9998255 2.7611901,0 4.9999346,2.2384378 4.9999346,4.9998255 l 0,0 z" color="#000" display="inline" enable-background="accumulate" opacity=".5" overflow="visible" visibility="visible" style="marker:none"/><path id="path4285" fill="#fafafa" fill-opacity="1" fill-rule="nonzero" stroke="none" stroke-width="1" d="m 2.5,10.000001 c 0,1.629049 1.1179766,2.991231 2.6249994,3.381504 l 0,-0.865877 c -1.0408527,-0.361525 -1.7864547,-1.35207 -1.7864547,-2.515627 0,-0.8092402 0.359882,-1.5349763 0.9296808,-2.0234341 l 1.1484427,1.148434 0,-2.6250009 -2.6249999,0 0.8841139,0.8841168 C 2.9528141,8.0231981 2.5,8.9588943 2.5,10.000001 Z M 6.874998,13.5 9.5,13.5 8.470049,12.470056 C 9.105729,11.838547 9.5,10.967252 9.5,10.000001 9.5,8.3709559 8.382022,7.008778 6.874998,6.618494 l 0,0.865882 c 1.040849,0.3615243 1.786453,1.3520667 1.786453,2.515625 0,0.734327 -0.303116,1.39572 -0.783852,1.877602 l -1.002601,-1.002597 0,2.624994 z" color="#000" display="inline" enable-background="accumulate" overflow="visible" visibility="visible" style="marker:none"/></svg>