<svg xmlns="http://www.w3.org/2000/svg" xmlns:svg="http://www.w3.org/2000/svg" xmlns:xlink="http://www.w3.org/1999/xlink" id="svg3816" width="48" height="48" version="1.1" viewBox="0 0 48 48"><defs id="defs3818"><linearGradient id="linearGradient3174-3" x1="24" x2="24" y1="-3.451" y2="41.904" gradientTransform="matrix(1.0540541,0,0,0.83783781,3.702711,7.8915317)" gradientUnits="userSpaceOnUse" xlink:href="#linearGradient3977-7-61"/><linearGradient id="linearGradient3977-7-61"><stop id="stop3979-6-49" offset="0" stop-color="#fff" stop-opacity="1"/><stop id="stop3981-3-78" offset="0" stop-color="#fff" stop-opacity=".235"/><stop id="stop3983-8-86" offset="1" stop-color="#fff" stop-opacity=".157"/><stop id="stop3985-2-07" offset="1" stop-color="#fff" stop-opacity=".392"/></linearGradient><linearGradient id="linearGradient3182-6" x1="25.132" x2="25.132" y1=".985" y2="47.013" gradientTransform="matrix(0.94285499,0,0,0.89086188,2.371479,1.2526241)" gradientUnits="userSpaceOnUse" xlink:href="#linearGradient4337"/><linearGradient id="linearGradient5071-7-3-2"><stop id="stop5073-2-9-5" offset="0" stop-color="#000" stop-opacity="1"/><stop id="stop5075-2-1-5" offset="1" stop-color="#000" stop-opacity="0"/></linearGradient><radialGradient id="radialGradient3814" cx="19.534" cy="40.43" r="23.93" fx="19.534" fy="40.43" gradientTransform="matrix(0.75220279,0,0,0.06268357,10.306121,42.465311)" gradientUnits="userSpaceOnUse" xlink:href="#linearGradient5071-7-3-2"/><linearGradient id="linearGradient5736"><stop id="stop5738" offset="0" stop-color="#586e75" stop-opacity="1"/><stop id="stop5740" offset="1" stop-color="#073642" stop-opacity="1"/></linearGradient><linearGradient id="linearGradient4337"><stop id="stop4339" offset="0" stop-color="#fdf6e3" stop-opacity="1"/><stop id="stop4341" offset="1" stop-color="#eee8d5" stop-opacity="1"/></linearGradient><linearGradient id="linearGradient4514" x1="17.231" x2="26.445" y1="-2.101" y2="55.173" gradientTransform="matrix(1.1062984,0.29511675,-0.17921718,0.66592164,3.025427,-3.0802734)" gradientUnits="userSpaceOnUse" xlink:href="#linearGradient5736"/><linearGradient id="linearGradient4522" x1="25.132" x2="25.132" y1=".985" y2="47.013" gradientTransform="matrix(0.93926714,-0.08217523,0.07764373,0.88747188,-0.3744572,2.9513293)" gradientUnits="userSpaceOnUse" xlink:href="#linearGradient5736"/><linearGradient id="linearGradient4528" x1="24" x2="24" y1="-3.451" y2="41.904" gradientTransform="matrix(1.0500431,-0.09186687,0.07302238,0.83464958,1.5673403,9.465259)" gradientUnits="userSpaceOnUse" xlink:href="#linearGradient3977-7-61"/><radialGradient id="radialGradient3025-3" cx="99.157" cy="186.171" r="62.769" fx="99.157" fy="186.171" gradientTransform="matrix(0.18422591,0,0,0.05911183,4.3992714,34.658414)" gradientUnits="userSpaceOnUse" xlink:href="#linearGradient3820-7-2-1"/><linearGradient id="linearGradient3820-7-2-1"><stop id="stop3822-2-6-3" offset="0" stop-color="#3d3d3d" stop-opacity="1"/><stop id="stop3864-8-7-7" offset=".5" stop-color="#686868" stop-opacity=".498"/><stop id="stop3824-1-2-5" offset="1" stop-color="#686868" stop-opacity="0"/></linearGradient><linearGradient id="linearGradient3019-3" x1="71.204" x2="71.204" y1="6.238" y2="44.341" gradientTransform="matrix(0.78502905,0,0,0.80075374,-33.342024,10.142208)" gradientUnits="userSpaceOnUse" xlink:href="#linearGradient4011"/><linearGradient id="linearGradient4011"><stop id="stop4013" offset="0" stop-color="#fff" stop-opacity="1"/><stop id="stop4015" offset=".508" stop-color="#fff" stop-opacity=".235"/><stop id="stop4017" offset=".835" stop-color="#fff" stop-opacity=".157"/><stop id="stop4019" offset="1" stop-color="#fff" stop-opacity=".392"/></linearGradient><linearGradient id="linearGradient3012-1" x1="167.983" x2="167.983" y1="6.833" y2="61.692" gradientTransform="matrix(0,-0.52946303,0.5400686,0,5.228046,116.44407)" gradientUnits="userSpaceOnUse" xlink:href="#linearGradient5803-2-1"/><linearGradient id="linearGradient5803-2-1"><stop id="stop5805-1-6" offset="0" stop-color="#fff5ef" stop-opacity="1"/><stop id="stop5807-6-6" offset="1" stop-color="#fef8dd" stop-opacity="1"/></linearGradient></defs><metadata id="metadata3821"/><rect id="rect3412" width="30.345" height="35.324" x="14.166" y="3.836" fill="#37c8ab" fill-opacity="1" stroke="#268975" stroke-dasharray="none" stroke-miterlimit="4" stroke-opacity=".533" stroke-width="1" ry="1.315" transform="matrix(0.99391007,0.11019422,-0.14698474,0.98913876,0,0)"/><rect id="rect3414" width="32" height="39" x="5.5" y="1.5" fill="#8cd5ff" fill-opacity="1" stroke="#002e99" stroke-dasharray="none" stroke-miterlimit="4" stroke-opacity=".314" stroke-width="1" opacity="1" ry="1.157"/><path id="path3818-0-5" fill="url(#radialGradient3025-3)" fill-opacity="1" stroke="none" d="m 34.230262,45.663292 a 11.563704,3.7103971 0 0 1 -23.127399,0 11.563704,3.7103971 0 1 1 23.127399,0 z" opacity=".877"/><path d="m 22.970858,14.679006 c -8.424246,0 -15.2678094,6.980628 -15.2678094,15.573631 0,8.592975 6.8435634,15.573624 15.2678094,15.573624 8.424232,0 15.267809,-6.980649 15.2678,-15.573624 0,-8.593003 -6.843568,-15.573631 -15.2678,-15.573631 z" style="marker:none" id="path2555-9-6" fill="#37c8ab" fill-opacity="1" fill-rule="nonzero" stroke="#2ea68e" stroke-opacity=".533" stroke-width="1" color="#000" display="inline" enable-background="accumulate" overflow="visible" visibility="visible"/><path id="path8655" fill="none" stroke="url(#linearGradient3019-3)" stroke-dasharray="none" stroke-dashoffset="0" stroke-linecap="round" stroke-linejoin="round" stroke-miterlimit="4" stroke-opacity="1" stroke-width="1" d="m 37.49389,30.446596 c 0,8.181768 -6.502668,14.814458 -14.522838,14.814458 -8.020939,0 -14.5232203,-6.632756 -14.5232203,-14.814458 0,-8.181409 6.5022813,-14.813426 14.5232203,-14.813426 8.02017,0 14.522838,6.632017 14.522838,14.813426 l 0,0 z" color="#000" display="inline" enable-background="accumulate" opacity=".5" overflow="visible" visibility="visible" style="marker:none"/><path id="path4451" fill="#000" fill-opacity="1" fill-rule="nonzero" stroke="none" stroke-width="1" d="m 12.892941,30.637631 c 0,4.499176 3.155956,8.276898 7.406987,9.356183 a 0.75679374,0.74193219 0 0 0 0.949607,-0.721492 l 0,-2.211039 a 0.75679374,0.74193219 0 0 0 -0.52229,-0.698229 c -2.412163,-0.821366 -4.130796,-3.071206 -4.130796,-5.725423 0,-1.589114 0.693908,-2.970568 1.709291,-4.049698 l 2.397769,2.350679 a 0.75679374,0.74193219 0 0 0 1.305717,-0.535313 l 0,-6.702931 a 0.75679374,0.74193219 0 0 0 -0.759691,-0.744771 l -6.837199,0 a 0.75679374,0.74193219 0 0 0 -0.546035,1.280086 l 1.804271,1.76883 c -1.689911,1.734271 -2.777631,4.050708 -2.777631,6.633118 z m 11.395352,9.00707 a 0.75679374,0.74193219 0 0 0 0.759677,0.674942 l 6.837213,0 a 0.75679374,0.74193219 0 0 0 0.546032,-1.280067 l -2.255331,-2.211038 c 1.469275,-1.683243 2.468985,-3.802341 2.468985,-6.190907 0,-4.499198 -3.155938,-8.276892 -7.406955,-9.356185 a 0.75679374,0.74193219 0 0 0 -0.949621,0.721513 l 0,2.211022 a 0.75679374,0.74193219 0 0 0 0.52228,0.698218 c 2.412168,0.821395 4.13082,3.071215 4.13082,5.725432 0,1.393199 -0.565839,2.607912 -1.376934,3.630748 L 25.59401,32.336633 a 0.75679374,0.74193219 0 0 0 -1.305717,0.535315 l 0,6.702923 a 0.75679374,0.74193219 0 0 0 0,0.06984 z" color="#000" display="inline" enable-background="accumulate" opacity=".063" overflow="visible" visibility="visible" style="marker:none"/><path id="path4285-6" fill="#000" fill-opacity="1" fill-rule="nonzero" stroke="none" stroke-width="1" d="m 13.85459,30.637653 c 0,4.159774 2.911941,7.638108 6.837212,8.634688 l 0,-2.211042 C 17.98074,36.138155 16.03871,33.608805 16.03871,30.637653 c 0,-2.066412 0.937365,-3.919572 2.421494,-5.166848 l 2.991291,2.932532 0,-6.702954 -6.837208,0 2.302806,2.257609 c -1.883078,1.631886 -3.062503,4.02119 -3.062503,6.679661 z m 11.395346,8.937241 6.837219,0 -2.682663,-2.629959 c 1.655723,-1.612551 2.682663,-3.837408 2.682663,-6.307282 0,-4.159782 -2.911944,-7.638111 -6.837219,-8.63469 l 0,2.211045 c 2.711051,0.923144 4.653091,3.452498 4.653091,6.423645 0,1.875102 -0.789514,3.563989 -2.041662,4.794468 l -2.611429,-2.560142 0,6.702915 z" color="#000" display="inline" enable-background="accumulate" opacity=".2" overflow="visible" visibility="visible" style="marker:none"/><path id="path4285" fill="#fafafa" fill-opacity="1" fill-rule="nonzero" stroke="none" stroke-width="1" d="m 14.235906,30.637643 c 0,4.159775 2.911941,7.638111 6.837212,8.634671 l 0,-2.211017 c -2.711062,-0.923153 -4.653092,-3.452511 -4.653092,-6.423654 0,-2.066395 0.937365,-3.919563 2.421494,-5.166844 l 2.991291,2.932529 0,-6.702944 -6.837208,0 2.302806,2.257596 c -1.883078,1.631894 -3.062503,4.021195 -3.062503,6.679663 z m 11.395346,8.93725 6.837219,0 -2.682663,-2.629962 c 1.655723,-1.612561 2.682663,-3.837413 2.682663,-6.307288 0,-4.159771 -2.911944,-7.638094 -6.837219,-8.634685 l 0,2.211033 c 2.711051,0.923152 4.653091,3.452505 4.653091,6.423652 0,1.875105 -0.789514,3.56397 -2.041662,4.794457 l -2.611429,-2.560132 0,6.702925 z" color="#000" display="inline" enable-background="accumulate" overflow="visible" visibility="visible" style="marker:none"/></svg>